<?xml version="1.0" ?><!DOCTYPE svg  PUBLIC '-//W3C//DTD SVG 1.1//EN'  'http://www.w3.org/Graphics/SVG/1.1/DTD/svg11.dtd'><svg enable-background="new 0 0 87 56" height="56px" id="Layer_1" version="1.1" viewBox="0 0 87 56" width="87px" xml:space="preserve" xmlns="http://www.w3.org/2000/svg" xmlns:xlink="http://www.w3.org/1999/xlink"><g><polygon fill="#F1F2F2" points="73.394,6.412 64.75,6.412 64.75,8.59 67.631,8.59 67.631,16.571 70.513,16.571 70.513,8.59    73.394,8.59  "/><polygon fill="#F1F2F2" points="49.983,12.217 55.025,12.217 55.025,10.041 49.983,10.041 49.983,8.59 55.386,8.59 55.386,6.412    47.462,6.412 47.462,16.571 55.746,16.571 55.746,14.031 49.983,14.031  "/><path d="M40.258,6.412h-4.321v10.159h4.321c3.242,0,5.043-1.813,5.043-5.079S43.5,6.412,40.258,6.412z    M39.898,14.031h-1.441V8.59h1.441c1.801,0,2.881,0.725,2.881,2.902C42.779,13.306,41.699,14.031,39.898,14.031z" fill="#F1F2F2"/><polygon fill="#F1F2F2" points="60.428,6.412 57.907,6.412 57.907,16.571 65.11,16.571 65.11,14.031 60.428,14.031  "/><path d="M1,3.365v49.271C1,53.941,2.161,55,3.593,55h79.814c1.239,0,2.271-0.793,2.528-1.852L1.78,1.677   C1.3,2.106,1,2.704,1,3.365z" fill="#F1F2F2"/><path d="M76.636,6.412l-3.602,10.159h2.521l0.72-1.813h3.602l0.721,1.813h2.521L79.517,6.412H76.636z M76.996,12.58   l1.08-3.266l1.08,3.266H76.996z" fill="#F1F2F2"/><polygon fill="#0067B3" points="76.996,12.58 79.156,12.58 78.076,9.314  "/><path d="M39.898,8.59h-1.441v5.441h1.441c1.801,0,2.881-0.726,2.881-2.539C42.779,9.314,41.699,8.59,39.898,8.59z" fill="#0067B3"/><path d="M83.407,1h-3.001H3.593C2.887,1,2.248,1.259,1.78,1.677l84.155,51.471C85.976,52.982,86,52.813,86,52.636   v-3.774V7.139V3.365C86,2.059,84.84,1,83.407,1z M40.258,16.571h-4.321V6.412h4.321c3.242,0,5.043,1.814,5.043,5.08   S43.5,16.571,40.258,16.571z M55.746,16.571h-8.284V6.412h7.924V8.59h-5.402v1.451h5.042v2.176h-5.042v1.814h5.763V16.571z    M65.11,16.571h-7.203V6.412h2.521v7.619h4.683V16.571z M70.513,16.571h-2.882V8.59H64.75V6.412h8.644V8.59h-2.881V16.571z    M80.598,16.571l-0.721-1.813h-3.602l-0.72,1.813h-2.521l3.602-10.159h2.881l3.603,10.159H80.598z" fill="#0067B3"/><polygon clip-rule="evenodd" fill="#F9A51A" fill-rule="evenodd" points="1.36,28.182 44.581,28.182 44.581,54.666 1.36,28.182     "/><polygon clip-rule="evenodd" fill="#EC1C24" fill-rule="evenodd" points="1,41.604 22.61,41.604 22.61,55.029 1,41.604  "/></g></svg>