<?xml version="1.0" ?><!DOCTYPE svg  PUBLIC '-//W3C//DTD SVG 1.1//EN'  'http://www.w3.org/Graphics/SVG/1.1/DTD/svg11.dtd'><svg height="100%" style="fill-rule:evenodd;clip-rule:evenodd;stroke-linejoin:round;stroke-miterlimit:1.41421;" version="1.1" viewBox="0 0 1117 759" width="100%" xml:space="preserve" xmlns="http://www.w3.org/2000/svg" xmlns:xlink="http://www.w3.org/1999/xlink"><g transform="matrix(4.16667,0,0,4.16667,0,0)"><path d="M62.002,0.416C46.397,0.416 31.912,12.211 28.309,27.85C28.309,27.854 0.813,147.359 0.813,147.359C-1.221,156.164 0.604,165.034 5.813,171.699C10.939,178.242 18.855,182 27.521,182L205.939,182C221.537,182 236.025,170.21 239.645,154.58C239.645,154.562 267.137,35.057 267.137,35.057C269.173,26.253 267.346,17.366 262.133,10.713C257.002,4.17 249.096,0.416 240.429,0.416L62.002,0.416Z" style="fill:white;fill-rule:nonzero;"/><path d="M64.505,19.785L121.508,19.785C129.468,19.785 134.416,26.262 132.555,34.244L106.019,148.173C104.15,156.154 96.184,162.627 88.227,162.627L31.224,162.627C23.258,162.627 18.313,156.154 20.181,148.173L46.722,34.244C48.582,26.262 56.539,19.785 64.505,19.785Z" style="fill:rgb(237,28,36);fill-rule:nonzero;"/><path d="M116.778,19.785L173.777,19.785C181.742,19.785 186.689,26.262 184.82,34.244L158.279,148.173C156.41,156.154 148.453,162.627 140.479,162.627L83.489,162.627C75.515,162.627 70.577,156.154 72.445,148.173L98.979,34.244C100.847,26.262 108.813,19.785 116.778,19.785Z" style="fill:rgb(0,86,158);fill-rule:nonzero;"/><path d="M179.732,19.785L236.726,19.785C244.692,19.785 249.638,26.262 247.77,34.244L221.238,148.173C219.369,156.154 211.404,162.627 203.437,162.627L146.435,162.627C138.469,162.627 133.523,156.154 135.392,148.173L161.924,34.244C163.792,26.262 171.758,19.785 179.732,19.785Z" style="fill:rgb(0,137,142);fill-rule:nonzero;"/><path d="M188.223,103.898L182.843,126.879L184.703,126.879L183.578,131.649L181.717,131.649L181.375,133.105L174.769,133.105L175.111,131.649L161.682,131.649L162.733,127.25L164.101,127.229L169.564,103.898L170.649,99.182L177.396,99.182L176.863,101.572C176.863,101.572 178.564,100.267 180.232,99.829C181.909,99.391 191.676,99.22 191.676,99.22L190.542,103.898L188.223,103.898ZM176.337,103.898L174.96,109.779C174.96,109.779 176.896,108.87 177.972,108.578C179.056,108.29 180.708,108.178 180.708,108.178L181.701,103.898L176.337,103.898ZM174.269,112.707L172.842,118.801C172.842,118.801 174.81,117.754 175.896,117.461C176.972,117.17 178.63,116.986 178.63,116.986L179.649,112.707L174.269,112.707ZM170.941,126.949L176.312,126.949L177.522,121.773L172.15,121.773L170.941,126.949Z" style="fill:white;"/><path d="M192.043,99.229L199.233,99.229L199.317,101.905C199.275,102.339 199.659,102.557 200.501,102.572L201.71,102.572L200.626,107.002L196.74,107.002C193.37,107.244 192.093,105.792 192.177,104.17L192.043,99.229Z" style="fill:white;"/><path d="M193.261,120.23L186.396,120.23L187.314,116.285L195.146,116.285L196.022,112.674L188.282,112.674L189.324,108.24L210.861,108.24L209.81,112.674L202.578,112.674L201.703,116.285L208.943,116.285L208.017,120.23L200.193,120.23L198.9,121.895L202.078,121.895L203.204,126.865C203.294,127.354 203.345,127.676 203.512,127.879C203.679,128.055 204.646,128.143 205.197,128.143L206.157,128.143L205.023,132.992L202.578,132.992C202.203,132.992 201.636,132.976 200.869,132.908C200.125,132.851 199.568,132.425 199.058,132.191C198.591,131.975 197.882,131.42 197.657,130.498L196.564,125.544L193.345,130.439C192.302,131.958 190.851,133.135 188.273,133.135L183.269,133.135L184.278,128.838L186.197,128.838C186.747,128.838 187.23,128.614 187.572,128.435C187.923,128.271 188.232,128.084 188.574,127.562L193.261,120.23Z" style="fill:white;"/><path d="M117.42,109.437L135.575,109.437L134.533,113.775L127.242,113.775L126.354,117.47L133.765,117.47L132.689,121.957L125.277,121.957L123.839,127.941C123.672,128.614 125.653,128.705 126.371,128.705L130.052,128.213L128.869,133.143L120.49,133.143C119.822,133.143 119.31,133.067 118.572,132.884C117.854,132.713 117.525,132.392 117.179,131.908C116.849,131.441 116.357,131.032 116.607,129.991L118.518,122.033L114.388,122.033L115.485,117.47L119.623,117.47L120.502,113.775L116.382,113.775L117.42,109.437Z" style="fill:white;"/><path d="M129.169,101.655L136.626,101.655L135.541,106.172L125.361,106.172L124.31,107.144C123.88,107.594 123.693,107.406 123.105,107.728C122.538,108.028 121.366,108.595 119.797,108.595L116.537,108.595L117.583,104.24L118.56,104.24C119.393,104.24 119.957,104.166 120.236,103.979C120.536,103.791 120.874,103.319 121.241,102.572L122.9,99.17L130.32,99.17L129.169,101.655Z" style="fill:white;"/><path d="M139.662,99.204L146.018,99.204L145.284,102.406C145.284,102.406 147.194,100.801 148.57,100.263C149.938,99.72 153.074,99.262 153.074,99.262L163.333,99.196L160.564,110.855C160.089,112.85 159.488,114.142 159.105,114.738C158.738,115.322 158.33,115.844 157.461,116.336C156.611,116.786 155.843,117.045 155.126,117.119C154.434,117.178 153.4,117.199 151.964,117.215L142.072,117.215L139.862,126.445C139.637,127.358 139.544,127.787 139.728,128.029C139.896,128.254 140.246,128.506 140.712,128.506L145.042,128.088L143.866,133.146L138.97,133.146C137.427,133.146 136.284,133.126 135.5,133.051C134.741,132.992 133.957,133.051 133.415,132.633C132.922,132.242 132.205,131.725 132.188,131.183C132.205,130.678 132.355,129.849 132.605,128.713L139.662,99.204ZM153.875,110.998L143.473,110.998L142.964,113.091L151.973,113.091C153.033,112.982 153.257,113.115 153.341,113.078L153.875,110.998ZM143.923,109.104C143.923,109.104 145.833,107.244 149.288,106.635C150.072,106.493 155.035,106.535 155.035,106.535L155.626,104.041L145.133,104.041L143.923,109.104Z" style="fill:white;"/><path d="M159.338,118.033L158.938,120.84C158.72,121.703 158.562,122.366 157.937,122.941C157.278,123.533 156.494,124.143 154.592,124.143L151.089,124.28L151.239,127.441C151.265,128.359 151.49,128.264 151.64,128.408C151.806,128.562 151.964,128.631 152.124,128.672L153.241,128.631L156.578,128.426L155.484,133.067L151.631,133.067C148.912,133.067 146.91,132.984 146.218,132.492C145.542,132.046 145.417,131.533 145.384,130.67L144.867,118.312L151.031,118.312L151.105,120.84L152.582,120.84C153.099,120.84 153.433,120.789 153.642,120.656C153.817,120.522 153.933,120.314 154.017,119.998L154.484,118.033L159.338,118.033Z" style="fill:white;"/><path d="M71.252,56.16C71.036,57.181 67.074,75.423 67.065,75.431C66.214,79.11 65.597,81.763 63.504,83.464C62.286,84.44 60.91,84.919 59.292,84.919C56.697,84.919 55.179,83.623 54.913,81.174L54.862,80.344C54.862,80.344 55.655,75.398 55.663,75.373C55.663,75.373 59.825,58.741 60.559,56.531C60.584,56.414 60.601,56.348 60.626,56.272C52.543,56.373 51.101,56.297 51.001,56.155C50.959,56.331 50.742,57.365 50.742,57.365L46.505,76.12L46.138,77.708L45.445,82.897C45.445,84.444 45.746,85.707 46.355,86.759C48.281,90.145 53.795,90.654 56.906,90.654C60.918,90.654 64.68,89.778 67.232,88.248C71.636,85.624 72.804,81.529 73.838,77.917L74.314,76.057C74.314,76.057 78.592,58.774 79.327,56.527C79.352,56.406 79.368,56.348 79.385,56.272C73.538,56.36 71.803,56.289 71.252,56.16Z" style="fill:white;fill-rule:nonzero;"/><path d="M94.908,90.462C92.03,90.429 91.038,90.429 87.685,90.579L87.551,90.354C87.843,89.06 88.168,87.81 88.46,86.517L88.86,84.786C89.486,82.054 90.095,78.922 90.162,77.959C90.228,77.375 90.412,75.932 88.769,75.932C88.068,75.932 87.334,76.266 86.6,76.599C86.2,78.034 85.382,82.096 84.999,83.939C84.173,87.847 84.114,88.289 83.748,90.204L83.505,90.462C80.553,90.429 79.526,90.429 76.132,90.579L75.973,90.321C76.541,87.993 77.108,85.67 77.642,83.347C79.076,77.079 79.41,74.681 79.802,71.511L80.069,71.287C83.389,70.844 84.181,70.736 87.784,69.997L88.077,70.327L87.534,72.354C88.135,71.987 88.727,71.62 89.353,71.287C91.038,70.477 92.922,70.218 93.948,70.218C95.517,70.218 97.243,70.661 97.96,72.47C98.653,74.088 98.194,76.082 97.293,80.027L96.835,82.021C95.909,86.408 95.758,87.218 95.258,90.204L94.908,90.462Z" style="fill:white;fill-rule:nonzero;"/><path d="M106.561,90.462C104.826,90.446 103.716,90.437 102.632,90.45C101.556,90.462 100.505,90.503 98.895,90.579L98.803,90.446L98.703,90.321C99.137,88.652 99.37,88.068 99.596,87.484C99.812,86.896 100.021,86.304 100.405,84.623C100.905,82.442 101.214,80.891 101.439,79.56C101.665,78.239 101.806,77.137 101.965,75.866L102.098,75.757L102.24,75.64C103.958,75.403 105.051,75.244 106.16,75.064C107.278,74.885 108.412,74.681 110.206,74.347L110.322,74.647C109.988,76.011 109.655,77.383 109.33,78.748C109.004,80.111 108.688,81.483 108.37,82.847C107.72,85.733 107.47,86.825 107.32,87.568C107.169,88.31 107.127,88.711 106.878,90.204L106.719,90.336L106.561,90.462Z" style="fill:white;fill-rule:nonzero;"/><path d="M132.305,80.595C133.314,76.178 132.547,74.118 131.554,72.863C130.052,70.952 127.43,70.327 124.685,70.327C123.042,70.327 119.131,70.51 116.069,73.347C113.884,75.365 112.85,78.125 112.241,80.778C111.624,83.468 110.906,88.364 115.36,90.128C116.761,90.721 118.73,90.905 120.006,90.905C123.292,90.905 126.646,89.987 129.16,87.297C131.112,85.162 131.997,81.921 132.305,80.595ZM124.819,80.265C124.652,81.003 124.01,83.798 123.118,84.974C122.525,85.824 121.783,86.341 120.982,86.341C120.757,86.341 119.339,86.341 119.305,84.24C119.289,83.209 119.498,82.142 119.764,80.965C120.523,77.65 121.416,74.856 123.685,74.856C125.478,74.856 125.586,76.916 124.819,80.265Z" style="fill:white;fill-rule:nonzero;"/><path d="M195.505,85.32C194.913,86.158 193.52,86.675 192.718,86.675C192.494,86.675 191.076,86.675 191.042,84.59C191.026,83.564 191.234,82.504 191.501,81.337C192.259,78.05 193.152,75.273 195.421,75.273C196.898,75.273 197.615,76.721 197.416,79.077C197.298,79.606 197.198,80.085 197.056,80.711C196.814,81.738 196.531,82.747 196.281,83.768C196.047,84.369 195.796,84.936 195.505,85.32ZM206.849,70.552C203.262,71.206 202.32,71.353 198.882,71.829L198.616,72.045C198.574,72.337 198.541,72.604 198.5,72.884C197.965,72.007 197.214,71.24 196.005,70.777C194.47,70.185 190.868,70.961 187.806,73.772C185.621,75.782 184.586,78.522 183.978,81.153C183.361,83.823 182.643,88.685 187.097,90.437C188.498,91.022 189.792,91.196 191.068,91.129C192.435,91.059 193.687,90.341 194.863,89.357C194.753,89.774 194.654,90.195 194.545,90.612L194.746,90.872C197.957,90.721 198.941,90.721 202.403,90.762L202.72,90.503C203.22,87.542 203.705,84.657 205.023,78.956C205.648,76.249 206.306,73.546 206.965,70.844L206.849,70.552Z" style="fill:white;fill-rule:nonzero;"/><path d="M151.89,90.462C149.012,90.429 148.028,90.429 144.667,90.579L144.533,90.354C144.833,89.06 145.15,87.81 145.451,86.517L145.843,84.786C146.468,82.054 147.078,78.922 147.152,77.959C147.21,77.375 147.394,75.932 145.75,75.932C145.058,75.932 144.325,76.266 143.59,76.599C143.191,78.034 142.373,82.096 141.981,83.939C141.164,87.847 141.096,88.289 140.73,90.204L140.488,90.462C137.542,90.429 136.517,90.429 133.122,90.579L132.964,90.321C133.531,87.993 134.098,85.67 134.632,83.347C136.067,77.079 136.392,74.681 136.792,71.511L137.059,71.287C140.371,70.844 141.171,70.736 144.767,69.997L145.058,70.327L144.525,72.354C145.117,71.987 145.717,71.62 146.334,71.287C148.019,70.477 149.905,70.218 150.93,70.218C152.499,70.218 154.226,70.661 154.951,72.47C155.634,74.088 155.175,76.082 154.275,80.027L153.825,82.021C152.89,86.408 152.741,87.218 152.24,90.204L151.89,90.462Z" style="fill:white;fill-rule:nonzero;"/><path d="M179.84,66.849C179.324,69.125 177.864,71.044 175.954,71.987C174.369,72.775 172.458,72.842 170.474,72.842L169.181,72.842L169.297,72.321C169.297,72.321 171.65,62.053 171.641,62.086L171.708,61.565L171.758,61.152L172.693,61.244C172.693,61.244 177.555,61.677 177.68,61.702C179.598,62.436 180.408,64.354 179.84,66.849ZM176.738,56.122C176.73,56.122 174.352,56.172 174.352,56.172C168.155,56.234 165.669,56.218 164.643,56.089C164.551,56.531 164.384,57.344 164.384,57.348C164.384,57.348 162.173,67.641 162.173,67.649C162.173,67.649 156.861,89.537 156.611,90.563C162.015,90.487 164.243,90.483 165.169,90.587C165.385,89.553 166.645,83.456 166.654,83.443C166.654,83.443 167.729,78.951 167.796,78.81C167.796,78.81 168.122,78.334 168.472,78.151L168.956,78.151C173.619,78.151 178.898,78.151 183.027,75.106C185.83,73.038 187.756,69.968 188.615,66.231C188.832,65.306 189,64.213 189,63.112C189,61.702 188.715,60.271 187.88,59.142C185.771,56.21 181.592,56.172 176.738,56.122Z" style="fill:white;fill-rule:nonzero;"/><path d="M109.705,72.871C111.599,71.565 111.84,69.734 110.23,68.784C108.621,67.841 105.785,68.137 103.883,69.443C101.973,70.761 101.748,72.591 103.349,73.538C104.959,74.485 107.803,74.188 109.705,72.871Z" style="fill:white;fill-rule:nonzero;"/><path d="M230.728,70.519L230.446,70.193C226.917,70.923 226.275,71.036 223.03,71.47L222.771,71.69C222.763,71.745 222.755,71.799 222.747,71.853L222.73,71.811C220.294,77.408 220.377,76.199 218.41,80.586C218.402,80.386 218.392,80.236 218.384,80.048L217.892,70.519L217.591,70.193C213.88,70.923 213.789,71.036 210.369,71.47L210.093,71.69C210.077,71.82 210.06,71.945 210.043,72.079L210.077,72.112C210.494,74.314 210.402,73.83 210.828,77.275C211.019,78.96 211.287,80.674 211.478,82.355C211.828,85.132 212.011,86.541 212.42,90.78C210.11,94.616 209.56,96.059 207.357,99.42L207.357,99.428L205.781,101.922C205.606,102.189 205.439,102.355 205.222,102.439C204.972,102.547 204.63,102.59 204.179,102.59L202.978,102.59L201.978,107.076L206.449,107.01C209.042,106.989 210.685,105.709 211.578,104.091L214.314,99.317L230.728,70.519Z" style="fill:white;"/></g></svg>